<svg id="Capa_1" data-name="Capa 1" xmlns="http://www.w3.org/2000/svg" viewBox="0 0 1229 1229"><defs><style>.cls-1{fill:#d8d2d2;}.cls-2{fill:#fff;}</style></defs><title>btn-info</title><circle class="cls-1" cx="614.5" cy="614.5" r="614.5"/><path class="cls-2" d="M1133.92,541.59c-29.5-91.77-117.77-142.75-207.78-159.88-13.08-2.49-26.26-4.39-39.5-5.8-51.93-5.49-105.82-3.21-156.26,10.91-91.56,25.63-165,94.91-191.85,186.74a252.89,252.89,0,0,0-9.79,55.25l201.08,24.13c-.21,0,9.17-33,10.27-36,11.07-30.21,31.95-58.28,61.49-72.36,61.07-29.1,151.61,24.18,114.5,96-10.83,21-29.1,36.92-47,52.35l-51.29,44.34c-15.61,13.5-35.12,26.51-47.94,42.59-23.84,29.9-39.34,65.39-46.42,102.92A347.25,347.25,0,0,0,717.9,949c0,1.87-.1,3.78.08,5.65H917.83c0-1.27-.05-2.54,0-3.83s.29-2.55.29-3.82c.23-2.61.52-5.21.85-7.81.36-2.92.77-5.83,1.2-8.74s.91-6,1.41-9,1-5.8,1.48-8.7c.46-2.58.93-5.16,1.43-7.73q.59-3.08,1.23-6.15c.28-1.31.55-2.63.9-3.93.07-.27.14-.54.23-.8,10.14-29.47,30-52,52.51-72.78,32.64-30.2,74.74-49.77,104.67-82.52C1133.06,685.15,1156.75,612.6,1133.92,541.59Z" transform="translate(-225 -178)"/><circle class="cls-2" cx="612.39" cy="955.83" r="108.33"/></svg>