<svg id="Capa_1" data-name="Capa 1" xmlns="http://www.w3.org/2000/svg" viewBox="0 0 567.66 546"><defs><style>.cls-1{fill:#f9f9f9;}</style></defs><title>calendario</title><rect class="cls-1" width="567.66" height="546" rx="101.36"/><path d="M400.13,712.21c0,7.12,0,13.59,0,20.06.12,17.69,13.52,31.22,30.95,31.27s30.81-13.35,31.1-31.1c.1-6.48,0-13,0-19.84H605.47c0,6.51-.06,13.12,0,19.73.15,12.7,5.9,22.17,17.17,27.84s22.4,4.54,32.59-2.88C662.49,752,667,744.8,667.4,735.68c.34-7.57.07-15.17.07-24.14,13.78.73,26.92.07,39.49,2.43,17.18,3.21,28.75,19.59,28.77,37.71q.1,83.12,0,166.23v93.15c0,23.34-16.58,40.39-39.86,40.41q-163.39.12-326.79,0c-23,0-39.79-17-39.8-39.88q0-129.41,0-258.82c0-23.67,16.6-40.31,40.32-40.54C379.5,712.13,389.35,712.21,400.13,712.21Zm-36,79v228.9H700.92V791.17Z" transform="translate(-248.71 -589.16)"/><path d="M411.39,713.26c0-7.06-.09-14.13,0-21.2.18-10.91,7.74-18.78,18.33-19.23s19.73,6.66,20.17,17.31c.65,15.59.65,31.25,0,46.84-.4,10.11-9.87,17.56-19.92,17.18-10.45-.4-18.31-8.45-18.59-19.14-.1-3.72,0-7.44,0-11.16C411.38,720.33,411.39,716.8,411.39,713.26Z" transform="translate(-248.71 -589.16)"/><path d="M616.77,713.15c0-7.06-.11-14.13,0-21.19.21-11,8.21-19,19-19.17s19.42,7.71,19.66,18.59c.33,14.87.35,29.76,0,44.62-.27,10.37-9.29,18.3-19.62,18.18a19.13,19.13,0,0,1-19-18.71c-.21-7.44,0-14.88,0-22.32Z" transform="translate(-248.71 -589.16)"/></svg>